<mxfile host="Electron" modified="2024-10-08T13:36:30.813Z" agent="Mozilla/5.0 (Windows NT 10.0; Win64; x64) AppleWebKit/537.36 (KHTML, like Gecko) draw.io/21.1.2 Chrome/106.0.5249.199 Electron/21.4.3 Safari/537.36" etag="K4Z4iTeilX6KAWFA-OHK" version="21.1.2" type="device">
  <diagram name="Page-1" id="-7KGkbHLVC04h71g6aNh">
    <mxGraphModel dx="928" dy="472" grid="1" gridSize="10" guides="1" tooltips="1" connect="1" arrows="1" fold="1" page="1" pageScale="1" pageWidth="850" pageHeight="1100" math="0" shadow="0">
      <root>
        <mxCell id="0" />
        <mxCell id="1" parent="0" />
        <mxCell id="5o5BsrkQ3rJbaVcCVcsi-26" value="" style="group;fillColor=#212121;" parent="1" vertex="1" connectable="0">
          <mxGeometry x="225" y="40" width="400" height="400" as="geometry" />
        </mxCell>
        <mxCell id="5o5BsrkQ3rJbaVcCVcsi-21" value="" style="whiteSpace=wrap;html=1;aspect=fixed;container=0;" parent="5o5BsrkQ3rJbaVcCVcsi-26" vertex="1">
          <mxGeometry width="400" height="400" as="geometry" />
        </mxCell>
        <mxCell id="D7BLrJn0ih8PD6cs8_KG-11" value="" style="shape=image;verticalLabelPosition=bottom;labelBackgroundColor=default;verticalAlign=top;aspect=fixed;imageAspect=0;image=data:image/png,iVBORw0KGgoAAAANSUhEUgAAAXMAAAFCCAYAAAADnD2aAAAACXBIWXMAACxKAAAsSgF3enRNAAAgAElEQVR4nO3df5AV1Znw8ZNU/thSYZYocV1jwNaU0ZCMRheklhQkWmsCQWQrWhoSxy01/gibmcJISRID466vFonWjEX87RsGd6IRXxENJGypSMUsgfIHuEZjqS1sQrkJKhlQ//Wt53oGh8vtvqdvn+4+p8/3U0VV4ty5t2/fuU8/ffrp5/nI+++/r1CeKIr+Vil1MrscNbcjjuMdfMjl+Vgob9QhA0qpntB3Ampvk1JqFh9zecjMSxRFkWTkzwXzhhG6+XEcPxz6TijLR8N4m84YCH0HICgDelkRJSCYlySKoouUUjODeLPAByYppfrYF+VgmaUEOjvZpv+4gZCMyAV/LoYWj8y8HH0EcgSqSym1jA+/eGTmBYuiaLLOyrtq/UaBdF+K4/hJ9lFxyMyLt4xADpCdF41gXqAoimZRUw40zNRFACgIwbxYlCICH6JUsUAE84LoLKS7lm8O6EwXpYrF4QJoAXT2sYO1cqClYylVtI/MvBh9BHIgEcuPBSAzt0yXIr5eqzcF2EepomVk5vaRdQDt8T2xjGBukS5FnFebNwQUpzuKIi6GWsQyi0VRFO3gtn3AmPRtmRzH8V/ZZfmRmVuiswwCOWCOvi0WkZlbQCkikAulihaQmdtB/xWgcyvZd/mRmedEKSJgBaWKOZGZ50dWAeTH9ygngnkOURSdwyg4wIpJURRxMTQHlllyoBQRsIpSxRzIzDukswgCOWBPF3eGdo7MvAOUIgKFOiWO423s4mzIzDszQCAHCkN23gGCeUaMggMKx4i5DhDMs+OKO1C8ZYyYy4ZgnoHOFihFBIo3iRFz2XAB1JDOErZRwQKURkoVT6Zvixkyc3N0RQTKRVfFDMjMDej+K9uoYAEqQd8WA2TmZihFBKpDqaIBgnkbjIIDKtdNqWJ7BPP2yAqA6g1QqpiOYJ5CZwPdzm4gEI4uShXTcQE0Af1XACcxYi4BmXmyPgI54ByWPROQmbfAKDjAaZQqtkBm3hojrAB38f1sgWDeRJci0n8FcJeMmONiaBOWWZowCg7wAiPmmpCZj6GP9gRywH30bWlCZq5Righ4iVJFjcz8Q/RfAfzDxVCNzPyDrPxkpdRzDmwKgOzmx3H8cOj7jcz8A9yIAPgr+O+vIpg3svJzKEUEvCalisFfDA1+mYVSRKAWgi9VDDoz10dzAjngv67Ql1uCzcwZBQfUUrB9W0LOzJcRyIHaCXbtPMhgrvuv9DiwKQDsmhnqiLlQM/Pgr3wDNbYsxBFzwQVzfdSmFBGor0khjpgL6gKoPlpvo4IFqD0pVTw5pL4toWXmdEUEwhBcqWIwmTmj4IAgBVOqGFJmTv8GIDzBfO+DCOa6FHGeA5sCoFzdoZQqhpKZk5UD4RoIoVSx9sFcH5W7HdgUANXoCqFUsdYXQBkFB2CMWo+Yq3tmTv8VAKNqPWKutpk5pYgAWqhtqWKdM3MGvQJoVtu4UMtgrksR6b8CoJmMmKvlxdBaLrMwCg5AilqOmKtdZs4oOABtdNWxDXatMnNKEQFkcEocx9vqssM+5sA22DRQZSCfOHGi2rJlS8e//+abb6rlN9zY+N/rN/xavffeexa3DkATiRez6rJTapOZR1F0slLquSq3IW8wb7b5qd+qFStWqM1b7T0ngAPMj+P44Trskjqtmdeu/8r0Gf+ohu+/T60YHFSHHHKIA1sE1E5t4kYtgnkURefUuRRx9ty56q7b7yCgA/ZN0kUT3vM+mOuLnrXviihZ+pKrFzuwJUDt9Ok7xr1Wh8w8mFFwC3ouVFNO+qwDWwLUSi1KFb0O5vpoGtQU7ssv+7YDWwHUTo++c9xbvpcmetUV8eyvzVUvvPj7lj+bPnWamn766WphX2/qc8j6+SFLllC2CNi3zOdSRW8zc30U7XFgU6yQ8sObbxlsBPx2uqd8zve3C7hops8j5nxeZqnd7bhCMvfFV30v9TFHH310adsDBGaZryPmvAzm+uhZ21JEuftT7gZN8qljjql6E4G6muTrdTjvgnkIpYiyHr518+bEn0fHRaVuDxCYpT6WKvqYmfeF0Egrfi12YCuAYHmXMHoVzPXRcqkDm1K4kZGRxJc47vhP1+Z9Ao6a51upom+Zee3v9Bw1snevGxsChMureONNMNdHyXkObAqAMHT7VKroU2YeTFYOwBkDvpQqehHM9QDWbgc2BUBYvOnb4vzt/PqoWMsbhKp01hlnqnHjx7fcgn1796oNjz8Wyq4ohAwqmTnji4lP/fSzz6gdO3eWuk2TJ01Sp33h1MSfP7jmoVK3xyO9URQNxHG8w+VN9qE3i1f9V1w1+kVeftNPMm2h3I2aJ/C0m77Uql/N1+f/s+r+/OcbXSJNHl/m66SR55s1a2ajf44pmSa1Zs2awsYEyjbNnz+/0UK5ndG/jRUDg2rz737HhKsDrXS9b4vTwVyXIqZ3nkIqGWghfdBbBSwTY7/g0jumSBKQV60cUiec+BmvXkfOcm67686OfleCrPyT/SwHTlvZcZ5tkmZvC1Vv40Dzg2t/WPoZhKOkb8usOI6fdHUDXV8zX+nANnhLArlMKOo0kI8lX3AZX1cU2dYyArnt17m456KOg2YzCeiLvps/d5HnsLFNcpB5YuNGeuh/yOl45Gwwr/souDIsv+EGo9NrU7J8IKftRZh91lcKD+TK8uvIvvjB0h9Zea5RctDMs4/l4NKujXJWj/zy0cYyHRoj5pzt2+JyZk4pYoLXXn2l7WPkNDvL2q0pyR6LmEW6eMk11p+zyNeRfVDUNss+lqWgrOR3bB9cRn1v0aJCntdDznZVdHLNXA9YJRXI4cKe9Fbv0pVx+Q03HvTfpSNj2wEZZ33F2truP515ppr2D/+gjjjiCCvPV9bryD5o91zDQ6vU9uefP+i/d40f3zbonj17jrpnKNtZ/bcu+Ebbx1zff13Lu4vbXSSVxGDKHXdmvihcQ1060XTuZiLngrk+6gU1Cs42OSVO+2Kuf/RRtThlWtFDax9WD6xenRis5ItvK5iPPXCMHmA2PfUbtXv3bivPX9TrXHzJJYk/k+c/79xzUy8cPrJ+nRq46ebEz+my71yZKZjLmcL531yQ+HO5mNl31aLE9yufpyzvpFU7ycGQYN7Qo0sVtzmwLfu5uMwyQClivp7labXEov/f/z21DE6CUKusfZQEINtLLXKAmTVrViOo2A7ktl9HDpZp6+7XLvl+2woQeW2pFEkiB9Is69QyfSrtTCEtkI+SfSL7J8mXzzjDeHsC4NwysFPBPIqik+s0Cq4oe97ek/rMaQcCOfU3CWKStaaJJh9r7d29/NIfUs8UXHudE1K6VkpWbnrDlQR8yZiTtDsoj5U2fUpew/TANTz888SfFXEQ99hMXaThDNcycy56amkDKHbsSL8RLe13W63htiJf/rRpR0cfdZTR85i4+uqrSxlQbet1PvnJTyb+bMO69Zme64nHH0/8mdzQZCrtsc88/bTx87z6enof/UMPPdT4uQLgVN8WZ4J53UfBZTV1+vTE32jXHnfChI8n/mxfhta6b+1ODuZJrQCykmy5jHVYm68zeXLyEJo9e9LPmpqlfZbRcccZP0/aY//nj380fp52GfyREz9h/FwBcGrEnBPBnP4rB5KbNNLWP+X2+jQfP/zwCra6Mw8+8IB3rzPh4xMSf5Y2VKSVtINrls/Rp8+8ZvpcGTHnSmbeRynih5Zck1y/LEsfLtxe3WUpM3/xpZesPE+Zr5N25mNzqEgZN1EhN2e6KlYezPVRjVJETW7FTisrTKsyKZOtoLXvnXdK2Wqbr+NiFkzgr1SPCyPmXKgzpyuiYXc7WfeV7nrtHD6x2Btw4Jcs10nQsWVVd1WsNJjro1kwpYjS46JTsrxyxZVXGFVjyIXLou+ohB179+1jT9aDlCpeFMdxZc24ql5moRTRgNQJt7ujEOVJW9LImgWXtcyEUlRaqlhZZq5LERkFl0KC+KqhIab+AH7o0tf/KrkgWklmro9eZOVtyM0eBPKwcceld5ZWVapY1TJLHxc92zv1tNM6+jKbtMiFH8q+45KDhxWVJKqlL7Poo9bSsl/XR1LZ8sILL2Qe2bawt1epXqbtITu5wB5Fye0gYGReFSPmqsjMGQWXkbRv/dW69R0NLABQidKz81KDuS5FDLb/ikx8l6yn1T8Z5pvWflQqKGR2ZZmoV89u1xtvlP6aLI04qbvsEXNlZ+Zk5Qmkl7Qsj0hQTyIBvagZnKOkL4zchRrHMbXqLdg+O/rz7r/kfg46GTqr1BFzpQVzfZSi/0obEtSl53iSouZOTp86TQ2vurdxY5PtgcBAoErt21JKMKcrYjb3rPxZ4uMlW5bAa4sMfpb1+OH777M6yR9AQ29ZpYplVbPQfyUDudNTbt9PWuZImypjSg4ICxcuJIAHgJYBlVtZRt+WwjNzPQqO8/aMtm7enPgLWSbQNJO5kisGB8nEA0LLgMrNLKOrYhnLLNzp2YH4teTxXWnDEdLIxdMnNm5Us+fObfvY6/uvSx0bByCTwos/Cg3meuApo+AsSxuO0IpUYMjFzeU3/ST1cRK8pZpGSiXvGVqZOjYOQCaToigq9Lph0WvmZOUdSpvbmGU4giyrPLB6ddsyQwniUkmD+hl32GF8qm6QEXMDcRz/tYitKSwz10chShErZBLI5UaladOmEchrbPy4caHvAld0FZngFhLMdSkio+AqJHcF3nbrbamBXLJxuVGp3UR2ANb06KIQ64paZhmgFLFal19yaeoQBWkt8MKLvw9jZwBuGSiiVNF6Zh7aKDgXyQXPtLs4F5x/AYG8Q7bPYo6c+Incz/Huu+9a2RaUZqYezmNVEcss3OlpQZ4hvN+64BuJP5M18s1bt1TynkJQxcVGk7mwcI71vi1Wg7k+2lCKWCFZKz//mwsSN2B4+OcB7IXqcLERhibZvq5obc2c/itu6J7yucSLnlJHTlaONJIMyECUJFxrsUpKFVfGcbzDxpPazMzpimjRuPHjO3qyk048MfFnG9atr/x9IZuy18NZsimV1a6KVoK57gpGKaIDTvnCKYkbsf355wPaE/VAcK29Hlt9W2xl5pQiOmLq9OmJG5LnoiqAwli5kSh3MNdHlXmFvU1kknaTUBUjzero5Zf+kPiuOl0eQ9C6bZQq2sjM6b8CdOjoo44qfNdxgPHCQN5SxVzBXB9Nur3bbR741DHHhL4LgJB05b3u2HEw10cRsvIKvPbqK8G9Z5e8/dZbzm1T2tIPvLE0z4i5PJk5o+AKdOppp1l/8jJO6UOwZ8/bie+yy+KSBgE6SB0nyB0Fc330YBRcQeTGjbSRbmlTiLg4V7w9b+9JfI2urmz5Tdpn4uIZAAo3r9NSxU4z88JHIIVs9llfSX33aYMr0gJAlnX4KSd9NrXrYsh27Ei+YW/ChGwj/dIy+fi114yfJ23pLcvnLk3a0vx591+Mnwsd6yi+Zg7m+qhB/5WCnHXGmW3Hu+3atSvxZ2kBIK1nS7PLL/t2FW/fCy++9FLiZp41Z3amt/DlM85I/FmWm7yee/a5xJ9lWbI7/tgo8WfSDqJd18irLvx79er6d43+rb/1b4y3KzAyYi7zxdBOMnOy8gJMnzpN/dvSZeq2u+5MfXL5Qm1/4b8Tf54WAKQGXQ4W7cjgZ5Ohz6F648//m3sfK332k7ac9vSzzxjv4bQDjLxGu4x7/2NPPz3xZ6/84WXj7UFumbsqZmq0pY8W9F/p0CO/fDT3c9z/H8Opt3inZe3i3274P+rlc19RO3bubPlzCeTtzgxCJ/tu81O/TQzEso93XfRGakMqCa4//vGPE38uB+2kz6iVtAO8GLjpZtV31aLUzFoOQml98NesWWO8PchttG+LcYZuHMzpiuiG/3zssdTtkK6IEgiS7gSV//7Exo1qxcDgQWvvF19ySWOdXH5/+Q03qsVLrmk7CDpUEtiSgrnsMzlwDw+tanmmJGvYaUFT3PHTWzPtWTnAy+st6Lmw5c9lW7ds2aKu779OjbRo6zBr1sy2Z2ObnvpNpm1Cbr26q+I2kyfKkpnTf6ViEoBN2o9KIPjB0h+lPiYtmEgglwHPEtwJ5q2t3/Drtgc7CazmVykO9Mj6dZl/5xerVycG81Ht/i6SyN8es2IrYTxizmjNXA8gZRRcheS0/va77zLaAAkEkl13Qn5PAhXSSSbcu/BfC9lLMmi7k8ApB3rJvG2Tv4l772OoSUVkxNw5Ji9tegGUOz0rJKPeLr38MuN2qBIIrl3y/Y42WAIUbVfNyJKWBF6bJAOWs6JO3TO0svH3YtN5555LVl4to/jbNpjrowKliBWQbPyKS7+tFvb2Zg6wGx5/LHOgkccziSgbCbwyILvTM6GxZP/ffMtg7ueRvxcbBxn5+/vyl76U6UIsCiGlim2vV5qsmZOVl2T0wqPSF5vyZkMSaKS87eKL/iV1LVXuGr2uv59A3iHZb1OnTm1UAplcSBxL9v09d9/dWNqyeUYkn708p9yANnph25ScHWz+3e/4e3CLjJgbiOP4r0lb9ZH3338/cYv10WBp7XdTIKT0rPn2cQn2ZF72SenhzBlfTHzeKvb75EmT1GlfODXx53mWd1CKoTiOE/ueJwZz3X9lGxUsAOCML8Vx/GSrjUlbM6crIgC4JXHtvGUw1/1XKEUEALfMTBoxl5SZc6cnALipZd+Wg4K5jvqUIgKAmya16tlywAVQHe230UwLAJw2opQ6OY7j/c31mzNzuiICgPu6mu8B2p+Z61LE1/kQAcAb+0sVx2bm3OkJAH7ZH7cbmbkuRdzIh5jPou/2tu1TrfQt3F/NOF4MABL8SxzHK0czc7JyAPDTgBSvfFSPguvmQwQAL8nF0L6PmU6xAEwccsghjU59JmReKZ35ACsawVyWWOaxP2HDoYceajwQutFqlWAO2ND3UV3WspbdibI1D5QG0JHtYy+AGo/zBwA4pRG/G8Fc3xLaz+cDAF5Zm3TT0AifIwB4YWTsqsr+YK5ny7HcAgB+GEhstCWL6DJLmA8SAJy2s/lmz1bDKRhMAQBuW9Y8qf+gYK4X04f4IAHASZv0KsoB0sbGcTEUANzTcvWkZTDXi+o03wIAtwyNliI2S8rMJaAv04vsAIDqjaRVHCYGc41SRRRm39697FzA3EDzRc+xUoN5HMcPU6oIAJXbqVdLErXLzBXZOQBUrm0c/li7B8RxvC2KIilV7OHz9M/X5/+z+tQxx7QcZ3d9/3VqZO9e9eCah2q9D8b2WJ81a6aaPXdu4mOHh1ap7c8/3/jfLu2Xqj/HiRMnqpkzvtj43/Pnz1fTZ/xj4mPXP/qoevLJD07o6/63VZJNepUk1f7p/GlkJJFSaoeeaIEENmeA5n2uKSd9Vv3flT9TRxxxhNHHtfiq73X0xfvVuvXqhBM/k/n3THW6XeKsM85UF/b0pAaediQwDQ//vOO+6758jknkILJ4yTXGr9+KHCB/sXq1euHF31vbrsCcIkl1u7dssswy2reFO0M9IQHgkV8+mukLKAMlVgwONrJY302eNEkNr7pX3XbXnbkCuZAsfvj++xr7RrLTMlX5OU6fOk1t3bq18Xx5ArlY0HNh433IgQ2ZDZoEcmUazNUHAX2AUkX3SSCTL04nJHDddfsdXr9/CUJPbNyYO4g3k32zbt26xv4tQ5Wfo5zRyAEsbxBvJmcocqCBsZEsSbRxMNcu4nNwl2Rjt916W67tkyAop9Y+amTk999X2JZLcHtg9erCM/QqP0fZh3JGUxQ50FzcQxgxdFD/lTSZgrm+84hSRUddcO55VtavZY3Ut+UWGwHQhAT07175nUJfo8rPsYx9+IOlPyp9ycpDO/VqiLGsmbkiO3fL4ROPaGRg8k++JDZIwOqe8jmv9oNUqxR5IXYsWQOW9WybXPgcZXmlrH34rQu+UcrreCxznM0czHXfFha+HCFfWLlIZToR39Tsr37Vq/0gWWiZ/unMM62+mguf44wZM6y+dprzv7mgFhfbC7Ipqf9Kmk4yc0VXRbdJedq0adOkpHT/P/lvb775pvF2nzZ1qjfvVy56ml6sk30g+2LsvpF/sr+kXtuUBKOilfk5SmCVMw5Tsh1Tpkw5YNvk/5vuQx/P/krU0epH25uGWpFF+SiK5I6kn7m5L8IkNdGLlyxR77333kHvX2qPNz31m0ZFhkngk9Nt+YK3eq6xmmujZS10yxazmuyzvzbXSu3xSSeeaPQ4CYJz5sxRu3fvPuhn8t/uGVrZuPnGJDuWfSgXC3fstF/gVcXnGE0+1nj7Fpx/Qcu6e3kN2YcvvvSS0YVo+dw6rd+vsf6xo+Cy6DQzHx0xtz30Pe+KFQODamFvb+qXVgLW8htuNN7iT3hykerLZ5xh9Dh5760C+VgSLDc/9Vuj5zvtC6dm2UwjVX2OnznhBKPnkn3TLgDLz0324eTJk41eMyAjeVqPdxzMNfq2OEDuHrz5FrPLGE8/+4zxBh926GHOv3fJOk1ryk3f+xOPP270uK7x440eZ6rKz9H0vZjuG5PH+bSUV5K+LKWIzXIFc71Iv7b6fRC2q6++2vj9/6VNZjrWuMPcD+ZZzh7ebbPUMOpPf/qT0eNsZ5ZVfo6m72XEsG2xyePKqpzxxPZWo+CyyJuZK7Lzask6cJZ153Zrp2ONHzfO+fd/1JF/Z/zYd9991+prT/j4BGvPVfXnaPpeTHvQ06s+s9xxNHcw14v1/XmfB515a7d5ZUMdZTngmAbAXW+8YfS4447/tLU96svnuHffPqvPx81DDYmj4LKwkZkrvWhP3xag5va98w4fsV2Z+q+ksRLM6aqIqoyzfBESKNlAp6WIzWxl5qOlivRtQTDkFnwgh515ShGbWQvmGtk5nCRlf7bZbhGL4GTqitiO1WCuF/GH+JsE6unoo47ik7VjU95SxGa2M3OlS2zo2wLUkO1rFLbLRT1ivaTbejDXpw3W1oEAFC9+LTZ6DRkqbVOWevkaGTIdBZdFR4222onjeFkURdL5q5wZWwBy+Z8//tHo16VbpEnLgQ2PP9bopIiDjBR1o2URyyyjuDMU8MSuXbuMNlQu+vo6VtARAzYveo5VSGauPsjOH46iSEoVZxb1GoAp6QMSx2ZLCSHa/sJ/N1oKmFToSIvg7s9/Xt1y60/bdqHEAWQUXGEVf0Vm5orsHEWzvYYbKlm73rBuvfG7l0EW0rd+69atjUxdRs6hrULjYaHBXC/yM2IOtVRE7XqVfrF6deZXHx13JxP95cxneNW9jeAugztwAClFfLjIXVJ0Zq4YMQf4Qbo2Dg+tyrWt0ltegvsTGzeqX61bz/r6hwofhF94MKdvC+CPG3683HjSUjtynUICuyzFBL4MM2ir/0qaMjJzCeh0VQQ8IGvnfVctshbQlV6KkWWYFYODIU7kt9YVsZ1SgrlW+GkGUKbXXn2llvtbKlQWXPit3EsuzWbPnav+3+oHQ+thbrX/SprSgrnu20JXRcAT1/Yva0zit3mhV5ZeVq0cCiVD365XJUpRWJ15AsnOXy/5NYFGQPrqnNnsiIxk0r7sN1nz7lu0yMrcTnmOyy+51Hh4tcdKLc0uc5mFEXOAp+T2fAnqZ39trlp81fcaNxjlsbCvt+7LLWttjILLotRgrg1Qqgj4ScoXH1zzkJo6daqaNm1aI7Cvf/TRjt7L2bPn1PmvoPQbJksP5vpiAHeGwgrTBlGwTy6USmBf2NvbaKp1xaXfzlQFc9l3rqzrp9JfRilisyoy89ERc9ureG0AxZClGKmCub7/OqPnl5LFGt4pOlJVC/BKgrlGdg7U0D1DK40rYI468u/qtgP6yipFbFZZMGfEHFwllRvSZ6TdP7kJpi7ktvt273fRd3uN3+09d99t9Lijjz66Tt8D66PgsqgyM1f0bQHq6Q8vvxziJ1tp25JKg7m+SMCIORTu8Inmk/R3vfGG0eOOO/7TtfngbLcS/vPuv1h9Pg8MlV2K2KzqzFzpYE7fFhTKZOgC7DEdWlGTfvSl9V9JU3kwp6siAM8NVFGK2MyFzHy0VJG+LQB8s9OVpWIngrlGqSIy27d3LzsNVaqsFLGZM8Fcj5ijVBGVG3fYYUab8PZbb/Fh5TQy4nUxW+Gj4LJwKTNXOjunVBHG9u7bZ/xY08ZO48eNM3rcnj1v1+aDqqotwojfZ1ZOrSY4Fcz16QqlijC27513rO+scePHGz1uz9t7gvqgJkyYYPzYAAZQDOnVBGe4lplLQF9GqaK/TEvSVIbljDTxDvP2+EdO/ITR47oMg/mOHZUXMFiza9eutk8VHXec8csdf2xk9DhPr3mMuHiNz7lgrnEx1GOmfTlOOvHE3G9SZlaa9tb+zAknGD3u6+edZ/Q4z5cIDvDq63Hbx8jkfdOMe/rppxs9zvQGLccMuHLRcywng7m+qECpoqee3rrVaMOlBaqN0/EN69YbPW7xkmvavp70KDGdpvP0s88YPc4HckZlclBc+sMftn2MdEKU4RMmspxZOWKnXj1wjquZuWIAtL+2P/+80bbLXZnr1q1rBNA8MyFtvJ4E+Yt7LlLLb/qJ0XNJ4Nuxs16rgSYHRRnKPLzq3kYzsmaj+/CJjRuNXk96n8uZlWecjUtlzwA1JndURVEkbenMW7XBCVkyVgmwEkDTgqhMs5EhCEnWb/i1cRA2eT0T9//HsCN7256nnnpKLei5sO3zyXKL/Mvriccf92TP7Lep6v4raVzOzBVdFf0kGWuno8Q6IdndioFy29E+tNaZ8mJrfrP5v3LP9szikfXrXHnrppxeLXA6mNO3xV+333Fnqdt+730/Ly0QDQ+tqt0Si9IHxeU33FjKa8nBN0vlkwMGXei/ksb1zFwCOl0VPSSDf03Hh9kggeHaJd8v/HXkgHHLrT8t4y1VQpazTKuROiXPf/vdd/m0W5zoitiO88Fc42Koh2R8mGSxZZEZlLK+XhQJ5Oede65vGWVmF17UU/WoTkYAAAWuSURBVNhZjjzvFVde4duFT2f6r6TxIpjriw5rHdgUZHRt/7LG1PaySGa54PwLrAcjqbyQQF7H5ZVmcrCaM2dOpkn7JuQ6ijyvZ/twe5Wj4LLwJTNX3EjkL8mYp0yZ0siay1jX3rx1i5o6dWrj9fIuGUhAk4ORTJ0PIZCPkoAu71nee959KEFcDrALe3t9PKvxJu585P3333dgM8xEUSTrVkt92FYkk3rkmTO+2Pj5rFkzG7XLSSQQyMVUWYPvlNSUzz7rK43fnj9/fmpZnQTvNWvWNP63lDx6WAddiLGfmdx8lTa5SS5ujjbuSisp9cDaOI7P8WVjfQvmfyuVb9I+w4HNAVBvx7pewTKWT8sso6WKLLcAKFq/T4Fc+RbMFSPmABTPmVFwWXgXzDVuJAJQlGU+lCI28zKY61JFRswBsG2TL6WIzXzNzBV9WwAUwNuzfm+Dub44wYg5ALYMudwVsR2fM3Olgzl9WwDk5UX/lTReB3NKFQFYMuBbKWIzr24aShJFkZwazXRz6wA4TkbBTfb9Q/J9mWUU2TmATtUiftQimMdxvI1SRQAd2KQHyHuvLpm50kdXShUBZFGbs/raBHN9MZRSRQCmhvRZfS3U4gLoWFEUyRXpSe5sEQAHyVn8ZB9v209Sp2WWUYyYA9COl/1X0tQuM1eUKgJIV4tSxGZ1zMwV2TmAFLWMD7UM5vpOrkEHNgWAWzb53H8lTV0zc0VXRQAt1PasvbbBXF/cYIgFgFHejYLLopYXQMeKokjqSLvd2SIAFahdKWKzOi+zjKJvC4C+OgdyFUJmrj7IzqX3wjwHNgVA+bbHcXxy3fd7CJm5IjsHghbE9z+IYK4vevQ7sCkAyrW2rqWIzULJzBUj5oDgjIR0Vh5MMKdUEQiO96PgsggpM5eAvlLuAHNgUwAUa2doLbGDCuYa2TlQf7XrithOcMFcXwxhxBxQX5v0WXhQQszMFX1bgFoL8uw7yGCuL4owYg6on6FQShGbBXEHaBJGzAG1Uvv+K2lCXWYZxZ2hQH0MhBrIVeiZuWLEHFAXtRwFl0XombkiOwdqIfjvcfDBPI7jbZQqAl6TUsSHQ/8Igw/mWh+lioC3gs/KFcH8A/RtAbw1qM+ugxf8BdCxKFUEvBJ0KWIzMvMD1XZyN1BDwfVfSUNm3oRSRcALwZciNiMzPxjZOeA+vqdNCOZNGDEHOC+YUXBZEMxbG6BUEXAWpYgtEMxb0BdV+IMB3NMf0ii4LLgAmiKKIqlf7XZ2A4GwUIqYgsw8Hdk54I4+AnkyMvM2oiiSng/znN5IoP62x3F8Mp9zMjLz9ujbAlSPs+Q2COZtMGIOqFywo+CyIJibkWC+04cNBWpmhCZ4ZgjmBuiqCFRmgFJEMwRzQ3Ecr5Qm+F5sLFAPO1niNEcwz4bsHCgPXREzIJhnoC/CMGIOKN4mfTYMQwTz7ChVBIpHKWJGBPOM9Gkf63hAcYYYBZcdd4B2iBFzQCHov9IhMvPOcRoI2DdAIO8MmXkOjJgDrGIUXA5k5vmQnQP28H3KgWCeg75IM+jtGwDcIaWID/N5dI5gnt8yShWB3BjQnBPBPCf6tgC5DdJ/JT8ugFpCqSLQEUoRLSEzt4fTRCA7+q9YQmZuESPmgEwYBWcRmbldlFYB5vi+WEQwt0hfxOmvzRsCirOWUXB2EcztG6BUEWiLrNwygrll+mIOf6hAsn5KEe3jAmhBoiiSu0O7a/nmgM5RilgQMvPikJ0DB+sjkBeDYF4QRswBB2EUXIEI5sWibwvwIdpeFIhgXiB9kYcRc8AHo+AoRSwQwbx4Esx31v1NAilGyMqLRzAvGF0VgcYoOEoRC0YwL4G+6LOp9m8UONhOlhrLQTAvD6WKCBGliCUhmJdEj5ijVBEhYRRciQjm5eqjVBEB4Wy0RATzEunTTdYPEYIhfTaKMiil/j/xtiYsN7hzoAAAAABJRU5ErkJggg==;container=0;" parent="5o5BsrkQ3rJbaVcCVcsi-26" vertex="1">
          <mxGeometry x="96" width="207.39" height="180" as="geometry" />
        </mxCell>
        <mxCell id="D7BLrJn0ih8PD6cs8_KG-4" value="&lt;font style=&quot;font-size: 18px;&quot; data-font-src=&quot;https://fonts.googleapis.com/css?family=Big+Shoulders+Display&quot; face=&quot;Big Shoulders Display&quot;&gt;Username&lt;/font&gt;" style="rounded=1;whiteSpace=wrap;html=1;container=0;" parent="5o5BsrkQ3rJbaVcCVcsi-26" vertex="1">
          <mxGeometry x="157.2" y="210" width="85" height="20" as="geometry" />
        </mxCell>
        <mxCell id="5o5BsrkQ3rJbaVcCVcsi-3" value="&lt;font style=&quot;font-size: 18px;&quot; data-font-src=&quot;https://fonts.googleapis.com/css?family=Big+Shoulders+Display&quot; face=&quot;Big Shoulders Display&quot;&gt;Password&lt;/font&gt;" style="rounded=1;whiteSpace=wrap;html=1;container=0;" parent="5o5BsrkQ3rJbaVcCVcsi-26" vertex="1">
          <mxGeometry x="158" y="250" width="85" height="20" as="geometry" />
        </mxCell>
        <mxCell id="D7BLrJn0ih8PD6cs8_KG-5" value="&lt;font data-font-src=&quot;https://fonts.googleapis.com/css?family=Big+Shoulders+Display&quot; face=&quot;Big Shoulders Display&quot; style=&quot;font-size: 11px;&quot;&gt;Cancel&lt;/font&gt;" style="rounded=1;whiteSpace=wrap;html=1;container=0;" parent="5o5BsrkQ3rJbaVcCVcsi-26" vertex="1">
          <mxGeometry x="157.2" y="310" width="30" height="30" as="geometry" />
        </mxCell>
        <mxCell id="5o5BsrkQ3rJbaVcCVcsi-5" value="&lt;font data-font-src=&quot;https://fonts.googleapis.com/css?family=Big+Shoulders+Display&quot; face=&quot;Big Shoulders Display&quot; style=&quot;font-size: 11px;&quot;&gt;Login&lt;/font&gt;" style="rounded=1;whiteSpace=wrap;html=1;container=0;" parent="5o5BsrkQ3rJbaVcCVcsi-26" vertex="1">
          <mxGeometry x="212.2" y="310" width="30" height="30" as="geometry" />
        </mxCell>
        <mxCell id="5o5BsrkQ3rJbaVcCVcsi-16" value="" style="shape=image;verticalLabelPosition=bottom;labelBackgroundColor=default;verticalAlign=top;aspect=fixed;imageAspect=0;image=data:image/png,iVBORw0KGgoAAAANSUhEUgAAAeMAAAClCAYAAABvAZX9AAAACXBIWXMAACxKAAAsSgF3enRNAAAeNklEQVR4nO2db4gfx3nHZ0Re+Y16RsYtsnPuXkuUP0WFU1pMDIqbE25sjGzXpyaY+uQ03EFrqmvSRlfyR1JJic7Y9ASGVheH6lyUpjpjxYjIMXetfeBgLKRige1IpLfRxa+ERS6ngl56y5yf3/mnvZndmdnZ3Zmd7wcObN3+dmdmf7fffZ55/vAsy1ioJEkyyRh7KNgJhMtv0jTFugMAgCOCFeMkSe5ijL3FGNvqwXBi5Ik0TU/EvggAAOCCLQGv4mEIcavMJEnyWxHPHwAAnBGkGCdJ8nnG2JgHQ4mZrfRCBAAAoCKhWsYQAT84QNsFAAAAKhCcGCdJsp8xttuDoYAPwb4xAABUJKgALtqjFEFbgx4MB3zEvWmavob1AAAAO0KzjCchxF4C6xgAACoQjGVMe5O/9GAoQM7fpmk6g7UBAABzQrKM8aD3m8NIdQIAADuCEGNKZdrrwVCAmq14YQIAADtCsYzxkA+DsSRJ/jD2RQAAAFO8F2OqP73Tg6EAPfDiBAAAhngtxrQHiQIfYbE7SZKomkhwzsc555nkZ8SD4QEAcnDOE8Xf7Hhba+W7ZYz602EC6xgAAAzwVowplemAB0MB5gwmSQKPBgAAaPIxjxcKhSTCZjJJkhNpml6JfSGa5INLt7t6CXpty46rqKoGQEN4KcaUyoT602HT6+q0P/aFaJhDji4HIQagQXx1U8Mq7gZj9GIFGuCDS7cjrQyAQPFOjGmvEfWnuwP2jpvDWQU0uKgBaBavxJhSmSY9GApwx25qewnqB72lAQgU3yzjGaQydRLUrW4GV2K85PtEAega3ogxlVEc82AowD2D8Hg0Al54AAgUnyxjFIroNocodxzUh6sArrdwjwBoFi/EmMonIpWp++CFKwx+E/sCANA0rYsx7SXiIR0He5HqVCuuXmhhGQPQMD5YxpNIZYoKvHj5DyxjABqm1QpctIeIwJ642CnaYqZpGqUoUyen4dw/z2ZZtlrlvI4LfrRuGXPOxRpJu15lWTbd/IiaQXQTYoyNyi5Wx7yLrufie2lyPVfz45wfrOvcBdesPC+eZZnzgekiahcjgjpK1kQaTpqmnbDAqO3accmv9mRZtkjHjNIxA4rTiOMmsixLbcbwwaXbhfv/VZvP5tmy4yrv/yfO+bL4c3Vw6qmiBxMJ8Dj9lJGSWOg96PTu0Qg9UPPX3zimDuhBLq65SUQkCHGcls2bvmPj9BKjHLPhOgum6ZpWwmxxX8W1Zg2vIf6ujpZcQ3xfJthHa74sOWZC99qu59Wam5r2DiHEcbI1pspc9KZ+qkCIGT1Az9NDwgZXkeoXHZ3HCBLL8wYCIdbpKOd8weH1Fwyu7wS67rKmEDP6Dol5L5MY9Mbf+44V9tC2WGdGY1u26c9N4zK9r8fFfSWB1bnGgOa9G3f4fXE+rzb3jFEmMW4OxJDqRNbKUc3DBxTWmw6u1rJxb0Wf18CGEc657Wd7108qXL/KdavMW4x5gZrkD+iIecXriWucMnlZNPzu5xkxGOtRydaP8rycc9sxrVPXvFoRYyqPiFQm0PWGIAtkrZgw0m/xGOCq4Ecb+8WVHo5k8VRxo6v2TOum6rx7Ijxc4nXp4ep6pdALQtUXnFGy5JXQdUy9GQcVLupS6pxX42KMVCbQx+5IUp3mGWO7sizjvR/G2K20TyzD2B3osOCHzDIW+1xTBj8XFOfeNF9yfcqE9IJizeYV57YV1IU+kUoVc7Taxy+CHsayeS/m501z36cYR8+9nh//TceSNae1znS9Parrab74jCpeEMT8hiTXm1Kcp+xvQSXEF/LXEf9P3+Uq1DavNqKpJ1F/GvRxouMNDqRBSyIYhnO+j97Q83/cbVrGV/L/YBqJqrBm0izLZCKtetjuywezUQDRPkVA2SgFGtkirqcS+jqQzVus0R7ZtcTYOOcp7VPKSElUVUFWsu/UKgV6bfqMCP7inO9RWJA6ay2dH62z7HrTfYFsN11LWKMF81K9GMi+P+L/JzjnixYeqx61zatRy5j2CF01PwfdYJDaZnaR+SIhoz9EmXVsI8Y7Ha3fJjE2ocDSVVkksrnOl0SVy0Szipu6aSFmiod6odVGLzMqb0pZtLPseotFn6F7IHuB0llr2fXmS8aomn/R9aTWftH3h+617YtbbfNq2k0N9zSQMdnRrk46LjHbh11dVBLjAnexSuxkcy1zC8t+P6AbfZtjsWkhpnHKxqpy7+scUzYHlYva5nqFL4sF87O5r8xCjHW2FYzved3zakyMaW9wb1PXA0GxFS9q9lCOsRO27LhahxgvGuZP2xaasBJjy2tVwWacPWRrs1pkmRWIiO31ys5l9TJZMAfTset8f2y+Y7XOq0nLuOuRs6AaY9RGE3yUbtM0K1WuR0FCsgdnkRVSRZhcoGMdukZ1b21fQso+p1pjW9Eq+266vqdtf0d61DqvRsRYlD9E/WmgAaxjO1y9xNRhFa96LsY+4bT0ZKCYRq63uaVjQum8ahdj2gtEgQ+gw25qpxkTLh7AtUVS60KuUJWLGiLjDhu3cWw4T0VrgiYs48NIZQIGzHQ0mKtOXKWGVbGMVfmeZYEyQT44PcN2DxcvSR5RqxhTKtOB0BYFtMogOnkZ44MYy1I+VltIGQL6NC3GXRV/J/Oqu+hHo0FbX/ubA+zJSTfa/09H/pGtXb++/t8vnH6x8vl0x3b555fYFx+4X/q7Z48dY/c/+GDlsdhy9swZ9uSBRt6tRKrTiTRNq+5hxkKrbmoKNjPOmwVB4FJAIcYF1CbGtPcXbP3pbx76zsZ/P/XM0+tCdPLkD9kb595sdVyR0OvqtD/2hdCk7YIfprnFG2RZNmR5TdAi4gXMtt0nkFOnm7pTkbHCIj35o/9gJ5//d3bXIALDG2AskrrV3lAhx1i2X3xBUf4SACChFjGm8oadVKy77/kc++9XX2X3fcGmlj8wJIYo/ErWhcOCH2s2H6IOU7IAoVr2iqmPrG7vXwCCwbkYUyRs5wNw/uX7sxDk+tlN7TZB/di2TlS5qJ3tF4u0KSHCnPOMOiyFklsKbkb0X86KfgK9t07mVYdlPBNLKpMQ5Ntuu82DkXQapDoVU2frRB1kLmonucUkwkJ8f+2gFy/YTFf3fIMMFHMqxlTOcMzlOX3n0Le+FdN022ArUp0KcfWiYmwZW5a/1D33QRJhuKRBFFHYri3j6MoZisCuz3zq0x6MpNMcopz1mNCtqtSmZWxT/rIQ0YKR+hWrLOG0rv1oANrEWWoT7e0Fm8pUhT/+7GfZ2+++E+4EwkC86MVUKlPXGmjFMqbylza9XYvOebBAhC9Qz17RZH+8YK+669i08POFWcux+h6V72ReTsQ4tPrTRYU1RFDWPffcwx4be1z7fBN//VfsB3P11zdZL7ihWXRDt8hIg4U8qrJXpDqlafpaCINtEFceA1PL2KmLmvaGVS7piSzLYigg0vUa0+JFrY2WlXXjZF6u3NSd6cr0yn8tsm8fOcwe+9KXtT+zbds25B43A9pwbsbJF2/Ljqume8YyyzS1eSgVpCsJy2Gog0KssqJsxdjWMkZUukdUFmPay+tcgI2otPWNr/+d9vG/c/tv1zoesM4gteMEH+YYu3JRG+UYuyx/SeeSuaZFRPaujlZ5qtJEX3YMGj7cTJAeBheWcWdTmc6+8lPtY7dv317rWMAGh5HqtIGr4C0XVrHAxlUns4iFuOyzOFcQ0J66TdN+pngJQlnKDlBJjKlc4d6uLs6NGzfYG6//TOvYj995Z+3jAets7VhlLh9chTb7xXmMy18W9ECejqAHsuzFZZzWRIqINGeMDUt+h7KjHaCqZdz5VKZ0edmDUYAcByJMdZLhqhSmtmVM5S9lgmATuDWicCl2Mcgnj2yO4sXsPO2hb9CrQCYqPUk+s9rGetW1faCoYKXqlR0MOvOyFmNKZXLVLcZbVlf1XtCTIcRCNAyCudrBZflL2R/NagwNJigoTSZo63vouVKKRRXI6vYiuNx/tT2X73vATuZlJca0ZxddgQ/gFbupTWfMuNozNkkXk1kptrnFMgs7pv3PqYqfF1sD0xU+37TIdTV1y8m8bC3jyVjqTwOvif2FsNFANtqzdFn+MurIYFHApEKgmnBN79E8tkr0NmgIYzGmvbpDuEHAAwapXWesONk337Ljqq5lLC1/SaICLKC1u9Xgk+sCnmXZHgNvRGypT0G+ZNhU4MJeHfCJySRJZtI0te061DZVHhyNVZopiHyGEFeAmm30u+unJeK5GkkFMhtSSexB98WYUpmirD8NvGUruas71fe4LFr1g0u3u4omX9I8rrYOTbEiqcW9q6bgNddFRsr29V1b4r5Y9rXOy9RNDasY+MgYte/0DVmAkiuaTu2SFpuoWJNXFU1cRvB7nbT/3i/ExnnauhQUGdHBZl/ftlGI6r6ank/n+2Hzt1nrvLTFmMoQogAz8BUfg7l08iNtI4pdBW+V7hcXuKiruk6lVaioRGbRWILPO21hDrLvlI4gGRcZIa+OTYUx1e+L/h5sX+iM+2TXPS8tMQ6tKxOIkt2U++4TQliOq8ZT0IZQx0Jq0hOgEo6qLmrVQ7ZIqI52pMFBfg7DVFClLmQejJGSFx9VgRedl0XZMWVtL2X3vSzvXPqSUTKvgxW8VrXNS3fP+DBSmYpJl1Ee1gNE3eofexbMNU4Phul+ly4J8SmFS63Johc6kdTSKGrx75xzk2vN5iKAVS7ug5zz1f4cWlqv4x3qYyyzsET1rUXVulTMKV6UWIPr30HO+UReGCiwTFVoROclbF4ieOLldIFaYt70wCSBlIlW2TaI6sEr5rWv/zr0cnGw4neotnmVijHtxQXR8BZEzyDlwPvixdlDf/jjZIXofk7nYeeqFGYh9CIhsyIGCh7WKub7RUg8uEh8ZN6Bo9TjOM8UnUPpcQgE1bxHFP/OcusxRfvMWnv24jjOuSzyeJheAnRXbVazFOYsCV/+ZVPMbdnkehq/l31PhguuM0tR6za1jmubl46bOvbCCiAsJj2rWy1LVSlC92HnCtOOTa4xsfZWHexTewFZuVU8IEKAFoRFVuSSzVG1E9aq7v0iD0gVS57pNO2n65h8J1arVD6rc16FYkzlBqNOZdKtOf2r996rfSxAC6+6OpGwTmgefsHgQeFkz3jLjqutuvTpoaQ754kudXMS/Zr7LH1bRsiyLd0DJVe0rSCvUrER7RdFeuGwFb5Fg7+bKYMyqibFUqTUNa8yyzh6q3jo935f67j/u3699rEAbcYoJ94L+soeFj0EZg0fFC5iOC56sj7T9IBSzb0nBJ3LaRZzz7LMpAKXjAFdtz2t4ZChNSnuz5BNGhvd210G1xOiOmVSYYyOK7tG6jKPu455KfeMqcxg1KlMt9xyC/vEJ3doHXv5f39R+3iAETNNRRxTdaTCP0p6CM5TYEyS+52N2+uIxWfyXCk7gCwhoygtG3prKOnZu6n6lM56S+Zh/JkmoACf3veh5wJdVIlGXyRwPghJRBCP6ryw9HlrJsjFrezE5cITQXPpXW9YtSdeJUCNxtm7Rj5QbdPeuovvtet5ScWYUpkmqwy0C9x/359qzeLatWvsyspK7MvlGztFqlOapl4VqnFl3W3ZcbWTqYb00Ox8P2N6eJ/KCfGuMjdw78FOwVx50Rk2TTej61XdAzW53oW6swUqRp3bXrPyvFRu6pnYU5mEVfyXX/2q1rGv/ORs7eMBVszQiyUA3kBpWgs5D4lp4J5MdKWWGQiDTWJMe21jsd+/p773PW0X9X/Oozyvp2yFhwd4yLgkNcYogp4ssbwLGS0RA0ZmGUddaevRhx9hL//kLLv/wQe1jj975gx7+913ah8XsOaQZ6lOAEA0wSZu2jOmcoKdT2USFm+aVk/lFHvFR777XSdjArVyoqkiGQBoIBNjoxKftOecP09sfYs7xYZljPrTZggh/sr+J9j7778f0rBjZbdPqU4gemSWwLhB8Q6mqDqFmrwB0++mRlcmTYRr+oEHHoB7OizQ/hP4gkw0B6h4x0FVAQ/x7/T784pgLQSvBMy6m5r21A7FvhhlnJx7np19+WX2xrk3/R4okDEo2oCmaRp9IRvQLiK9jXN+QVLze6Pet2EDDka9pSHGAdOzjPGA0uD111+HEIfNYaQ6AU8oqjhmyqqDutOgZbbQw2kvbkQ5d9xxh+9DBMWIVKeHsEagbSg1aZeDAifzLss8gvbYQr1f53APyvnmoe+wc+fOrac/gSARZdJ+jFsHfEAU+RC1ikmUTRpG9BqKiHrRRs0bgL/0UpsmyWKIuuqWDtu2bWNPPfM0e/jhh9nk17+GaOqwOEwvnwB4Q18pxY0yjpzzfGEQZb1q0A3WxVg8oKgxxD/jvupx9z2fY8+fmGN/Nvoou3HjRghDjp0l3+pUdwGJaPQwCiiSFPfv4aRZQWjkm2OA7rNR9ENEmYpo0xjSmy7//BL74gP3S38nXNDC6hViW4YoHvIPf/8N9u0jSM8OgNpuEglSvoWdEKOh0BdNBs13XBINfBOc80Vyw6p+f5CaHRRVpDrKORet56YpD3e54NjOrjnoPvlymPtjv+cvnH6RPfb4X6znEuvw2Njj7DOf+nTbwwbFzKVp+hrWqBqiwQHnfIFePEqb2asQoso5X6Y0HpSGBNHD8mJMD6wlrAxjTx44sG5B6/Dno6p2oMAD1tAswhnHq3YGUnQsAiB6ZI0ioreOe/zguee0jhPWsWi5CLxkBkFb1SHXtIu3znEIMQCb2STGaZpeYYwdw1oxdv5/9IMXd37mD2odC7BiJU1TbOi7QSXEIsCKK35k+8WqQK2pgvM03iwegKaRWcaMgl3WYr8bV1ZW1htC6LB9+/a2hws2A/e0A8i1LHNPiwCtCd0rKDoNMRJiCC6IGqkYk1sPDzLG2C8uXdY67uN33ln7WIARIpUJBT7coHIrm6bfqPabtapQUZEMlfXMEUkNQkZlGTPKybwY+91dXf211nEDAwgK9Qy8TLpDJcZOKj+hmAUABWJMRP9AS5f1njcDt0KMPeJYmqZvxb4IDlF9uU2LcSBwCwAFhWJMqU4vYfFAQKzVWeADAADqoMwyZrCOQWCg/jQAIDhKxZhSnY7g1oIAEKlM6M0NAAgOHctYMEPt5wDwGRSsAQAEiZYYk9sP+3AFDAzc6u3YImEJ9acBAKHyMd1xi1SnJEmE5bEbd3szuilQoDaitoqpo1FRlazo2hDqULRuKEQCmkRbjAlhHb+KOwQ84wjFNgQD5/w41WnOsyfLMq0iGFTRalxxnn5EG0JGzeundYSZuiqVpSIt03krwTnPCj4/ke/tqxhbYbvG3Oe11o1zfpRyqafRXxjUje6e8TrkBpzDXQEesUYxDcFA5SVl1tiigRALITmvIcT9HCQBrdR5KWSoh7LJugnRPy5aR9J9A6AWjMSYmETdauARkwGmMo0qCmloWV+c81FqZ2iDuO4pcs9GBa3bUcs5j1RYcwBKMRZjevAhfQT4wEUq2xoaMqtM1F2e15yHraD0GCjontRJyKqtKqaj5JEAwDmme8briLZ0FMw1iFsCWiS4gjS0Xzks+ZWJVSyzai/Q/uqF3PE9iy7/mXHOudgLVdV77R/PsMKtPm1YEnNUMfepgs+4qlut8kYs0rrdtA7kzpa99IxYNMgAoBQrMSbEg/B015c4GdLz5unWsAbOmAs0lUkmaqsGD3iZmK1S4NcmYRR70JxzEdi0rBiLNGK4P5KYrEHZuGcLxHwT5BrfNP6GopZl++Ri7PsU6zZN481bwsI6HkB0OnCNzZ7xOtSebqnrd+SP7r5b67i1NWyjN0jI9adlbs55g4e7qq+w8vMkmDILM6Z9Y9m6la276gUJDS+Ac6zFmOh03eq7BgfZtm3btI5du3699vGADWZCS2ViH7mYZa5SE8tQ5aIuQ3aMzMruHLRfLFv3Mqte9XuIMXBOJTGmNnXHunpbHtn7kPaxly5frnUsYIOVQAIIZRaXKp1Jy9VbICq244klVcdKPAusZqQ4AedUtYwZuQs756N99OFH2JOTB7SPT6/8stbxgA1C6cp004O8oNKTiVVcpa+w7JhYLDzX4gkxBs6pLMZdq1t93xdG2LPHjrGnnnla+zNvvP4zduPGjVrHBdZZCjSViSmEONUt8gFaA5GZoBGqRFNvINrWJUkyGUqq0yc+uUOM2dn5Tp/ufFC5L4QUo5C3RKtaxQCADuPCTd0j2kL9Z1/5qQej6DxzFKMQChtirMgtFr/XLfLRQ+VWRpoNAIHjTIwp57PzqU55np05Bhd1/awFHrmvytF1JaIQYzuwbsAbXFrGLDbr+Nq1a+xfn/u+ByPpPDMB1p/uf9DLcoubruIE4dkM1gR4g1MxptzPI7Hc3q/sfwJWcf2siPKrAY57/UFP5Sjz0bfzJpWr6iTGhhEA+Ihry5hRDmjny1E99qUvs7fffceDkXSe0AvLSF3ULYwDAOAxzsWY3Imdrcwl0pj+5N572Rvn3vRgNJ1nicquhkjPBZoX4wtIZwIA5HGS2pRH5IJSqtPOrqz42TNn2MmTP4QIN0vQMQiK8pfDaDTgDQuc89jXAHhCLWJMCDF+NdQbLaKkf/Xee+v//cLpF1sfT4QcC7H+dB9FvXPHHecYozAFAIHDsyyrbQZJkohqSWP4kgBDRMzBXaFEUFOLQZPG9cJVvcviOiIYbEHyq6GygLCCMdb62dwYjssiy7MsMzJPOefLkpxrUeN7j+J41brZIvofY98fOKWOAK5+Olm3GtROKPWnbRmmQiAAALBOnW7q9VSnJElEdPUhLDfQ5KIorxrBYo1qtj4E9TFr6eLHfQPOqVWMiRkKxAmibjVonS5G4qcSt6oQ46mWxgM+ZB6R7cAX6nZTd66rE6iVl6isapdIFaKb0F6mC1C4A4DAqV2MGaU6xVi3GhjTRat4OsuyeUXpRVlBEABAhDQixkRnC4EAJxwJPJVJRn9nJln07ajIOW53iAAAH2hMjKn93RzuOpCwRrEFXWO6r7iHrF2iEGJXrmoAQMA0aRkzso6R6gTyTHY0lWnDGs6y7IIicrdVV7UvDSt8hXOeSX5kXbgAqESjYkwP3BjSVoA+SxRT0DkkJS/bdFXDHb4Z2zXBWgLnNG0ZM2qHt4JbCYiYIu1VaTRVLS2Igx1YN+ANjYsxgWAuIJjrYCqTEnJVywpG6LqqVc0lICoABE4rYkxt8ZDqFDdrkeafywK5dMtjotMTAB2lLcuYhd4eD1RmpoOpTDqoGgwgqhqAiGlNjOlBfAxfvihZiTWQj4K6ZHvHOvvGVdzUsmNiiaR27VGAhwI4p03LmKGrU7R0NZVJF5mrurQ8Jgm5rRDIxDgWUbGaZ0GUO8QYOKdVMUbd6ihZopiBmKlSHlNmzersN8uOiaL7EOVSy9a7rKa36vfIzQbOadsyZtQuD6lO8RB9JH2Bq1on51j2uRHOuVJYKDhMJsYxiYpNwRXZ1sEqRcUD4JTWxZhAMFcczFFZVGBfHlMmxuJzp2QR2ZxzITinFOeSjaGrqLYGFmQvMpzzgwoxRstFUAteiDHlmr7kwVBAfazBKv4I205O1H9X5ao+ny/dSEIss5pnIyuFOatYb/HysyxZt6MF5wHAOb5YxgwP6s4zE3nQlgyZtabjqt5X8bpClKYrniMoaGug6pzn6WUIAOd4I8aU6nTEg6EA96xQGVRwMyo3cWGaE+1Z2gqyEKV9MTaIyLJMiPGU5ceFCE84HhIAG/hkGTPKPUWqU/dATICEApdzac4xubmHDN2mQoyGYrbuSJB3GaybuD9TWZbtkTT+AMAZPMsyr1YzSRLx4P43D4YC3CBSmT6PtawXCkJS7TfPQkjkUNCbNGiOhBuAZr6Lvokx+1CQRUDXbg+GAqrzu5GWvQQAAG18c1P3wP5iNzgGIQYAgHK8FGNKdZrzYCjAnli7MgEAgDG+WsYMdauDJ/b60wAAoI23YkzuzSg7+3SAi2manoh9EQAAQBefLWNGYoy61eGBAi4AAGCA12JMbk482MPiJdrzBwAAoInvljGjdntLHgwF6IGXJwAAMMR7MSbwgA+DI0hlAgAAc4IQY2q7h1Qnv1lBwB0AANgRimXMyDpGqpO/HEYqEwAA2BGMGNODHpaXnywhlQkAAOwJyTJm1IYPqU7+gUpbAABQgaDEmEA7Pr+YQyoTAABUIzgxpgc/Up38APWnAQDAASFaxgzWsTfMIJUJAACq42U/Yx2SJBHBXAf8H2lnWUnT9K7YFwEAAFwQqmXM0NWpdVCIBQAAHBGsZcw+tI4fgii0wpU0TbFVAAAAjghajAEAAIAuELKbGgAAAAgfxtj/A+NJBmSl9kSMAAAAAElFTkSuQmCC;clipPath=inset(3.92% 0.33% 0% 41.67%);container=0;" parent="5o5BsrkQ3rJbaVcCVcsi-26" vertex="1">
          <mxGeometry x="15" y="340" width="88.78" height="50" as="geometry" />
        </mxCell>
        <mxCell id="5o5BsrkQ3rJbaVcCVcsi-23" value="" style="endArrow=none;html=1;rounded=0;entryX=0.5;entryY=1;entryDx=0;entryDy=0;exitX=0.5;exitY=1;exitDx=0;exitDy=0;" parent="5o5BsrkQ3rJbaVcCVcsi-26" source="5o5BsrkQ3rJbaVcCVcsi-21" target="5o5BsrkQ3rJbaVcCVcsi-3" edge="1">
          <mxGeometry width="50" height="50" relative="1" as="geometry">
            <mxPoint x="230" y="230" as="sourcePoint" />
            <mxPoint x="280" y="180" as="targetPoint" />
          </mxGeometry>
        </mxCell>
      </root>
    </mxGraphModel>
  </diagram>
</mxfile>
